# xmcd
#
# Track frame offsets: 
#        150
#        13769
#        30968
#        43922
#        59538
#        82480
#        101461
#        122312
#        140916
#        150872
#        171327
#        194205
#
# Disc length: 2852 seconds
#
# Revision: 2
# Processed by: cddbd v1.5.2PL0 Copyright (c) Steve Scherf et al.
# Submitted via: ExactAudioCopy v0.99pb4
#
DISCID=a60b220c
DTITLE=Big Mama Thornton - With The Muddy Waters Blues Band 1966
DYEAR=1966
DGENRE=Blues
TTITLE0=I'm Feeling Alright
TTITLE1=Sometimes I Have a Heartache
TTITLE2=Black Rat
TTITLE3=Life Goes On
TTITLE4=Everything Gonna Be Alright
TTITLE5=Big Mama's Bumble Bee Blues
TTITLE6=Gimme a Penny
TTITLE7=Big Mama's Blues (My Love)
TTITLE8=Looking the World Over
TTITLE9=Since I Fell for You
TTITLE10=I Feel the Way I Feel
TTITLE11=Guide Me Home
EXTD=
EXTT0=
EXTT1=
EXTT2=
EXTT3=
EXTT4=
EXTT5=
EXTT6=
EXTT7=
EXTT8=
EXTT9=
EXTT10=
EXTT11=
PLAYORDER=
